<svg xmlns="http://www.w3.org/2000/svg" style="display: none;">
  
    <symbol id="icon-search-find" viewBox="0 0 512 512">
      <path d="m347 238c0-36-12-66-37-91c-25-25-55-37-91-37c-35 0-65 12-90 37c-25 25-38 55-38 91c0 35 13 65 38 90c25 25 55 38 90 38c36 0 66-13 91-38c25-25 37-55 37-90z m147 237c0 10-4 19-11 26c-7 7-16 11-26 11c-10 0-19-4-26-11l-98-98c-34 24-72 36-114 36c-27 0-53-5-78-16c-25-11-46-25-64-43c-18-18-32-39-43-64c-10-25-16-51-16-78c0-28 6-54 16-78c11-25 25-47 43-65c18-18 39-32 64-43c25-10 51-15 78-15c28 0 54 5 79 15c24 11 46 25 64 43c18 18 32 40 43 65c10 24 16 50 16 78c0 42-12 80-36 114l98 98c7 7 11 15 11 25z"/>
    </symbol>
  
    <symbol id="icon-fontello" viewBox="0 0 512 512">
      <path d="m174 262c0-5 0-11 1-16 2-13 4-26 7-39 2-7 4-13 6-19 2-6 5-12 7-18 6-11 12-22 20-31 2-2 4-4 6-7 2-2 3-4 5-6 4-3 8-7 12-10 8-6 15-12 23-15 7-4 13-8 18-10 11-4 17-6 17-6 0 0-5 4-14 10-5 4-10 8-16 13-6 5-11 12-18 18-3 4-6 8-9 11-2 2-3 4-4 6-2 3-3 5-5 7-6 9-10 19-14 29-2 5-4 11-6 16-1 6-3 12-4 18-3 11-5 24-6 36-1 4-1 9-2 13 99 0 175 0 283 0 0-4 0-9 0-13 0-90-66-165-150-175 6-5 9-12 9-20 0-16-13-28-28-28-15 0-28 12-28 28 0 8 3 15 9 20-85 10-150 85-150 175 0 4 0 9 0 13 11 0 21 0 31 0z m-62 11l400 0 0 35-384 0z m236 60c-21 10-91 36-91 36l-84-5c0 0 48-14 66-18 19-4 11-25 1-25-11 0-100 4-100 4l-60 21 16 100c0 0 12-21 24-21 12 0 119 3 133 0 15-3 103-63 113-70 11-7 2-31-18-22z m-348 24l0 129 91-17-22-124z"/>
    </symbol>
  
    <symbol id="icon-fontello-1" viewBox="0 0 512 512">
      <path d="m256 0c-141 0-256 115-256 256 0 141 115 256 256 256 141 0 256-115 256-256 0-141-115-256-256-256z m-96 256c0-53 43-96 96-96 53 0 96 43 96 96 0 53-43 96-96 96-53 0-96-43-96-96z m303 86l-89-37c6-15 10-32 10-49 0-17-4-34-10-49l89-37c11 27 17 56 17 86 0 30-6 59-17 86z m-121-293l-37 89c-15-6-32-10-49-10-17 0-34 4-49 10l-37-89c27-11 56-17 86-17 30 0 59 6 86 17z m-293 121l89 37c-6 15-10 32-10 49 0 17 4 34 10 49l-89 37c-11-27-17-56-17-86 0-30 6-59 17-86z m121 293l37-89c15 6 32 10 49 10 17 0 34-4 49-10l37 89c-27 11-56 17-86 17-30 0-59-6-86-17z"/>
    </symbol>
  
    <symbol id="icon-fontello-2" viewBox="0 0 512 512">
      <path d="m106 202l0-89c0-9-7-16-16-16l-20 0 0-18 46 0 0 327c0 4 4 8 8 8l85 0c5 0 11 2 15 5 17 14 35 35 33 55-2 8 5 14 17 14l94 0c13 0 27-6 28-14 3-20-16-41-33-55-3-3-3-5 2-5l42 0c4 0 8-4 8-8l0-355c0-4 2-8 4-8 3 0 5-4 5-8l0-5c0-5-3-8-8-8l-303 0c-5 0-9 3-9 8l0 5c0 4 3 8 7 8 3 0 5 4 5 8l0 11-63 0 0 35-14 0c-9 0-16 7-16 16l0 89c0 8 7 16 16 16l51 0c9 0 16-8 16-16z m173 225c-1 1-3 1-4 0-1-1-1-2 0-3 0-1 1-1 3 0 1 1 1 2 1 3z m7 2c0 1-1 2-3 2-1 0-2-1-2-2-1 0 0-2 0-3 0-1 0-2-1-3 0 0 0-1 0-1 0-1 1-2 2-2 1 0 2 0 3 0 0 0 0 0 1 0 0 0 2 1 2 1 1 0 2 0 3 2 0 1 0 1-1 2 0 1-1 1-2 2-1 0-1 1-2 2z m-7-12c-1-1-1-2 0-3 1-1 3 0 4 1 0 1 0 3-1 4-1 0-2 0-3-2z m6-2c1-1 2 0 3 1 0 1 0 2-1 3 0 0-2 0-2-1-1-1-1-3 0-3z m9 34c-1 0-2 0-3 0-1-1-1-3-1-3 1-1 2-1 3 0 1 0 1 1 1 3z m0-6c-1 1-2 1-3 0-2-1-2-2-1-3 0-1 2-1 3 0 1 1 2 2 1 3z m15-28c1 0 3 0 3 0 1 1 2 1 3 2 0 1 0 2-1 3 0 0-1 1-2 1-1 1-1 1-2 2 0 1-1 3-3 2-1 0-2-1-2-1-1-1-1-2-1-3 1-1 0-2 0-3 0 0 0-1 0-1 0-1 1-2 2-2 1 0 2 0 3 0z m0-5c1-1 2-1 3 1 0 1 0 2-1 2 0 1-2 0-2-1-1-1-1-2 0-2z m6 49c1 1 1 3 0 4-1 0-3 0-4-2 0-1 0-2 1-3 1-1 2 0 3 1z m-9-46c-1 1-2 0-3-1-1-1-1-3 0-3 1-1 3 0 4 1 0 1 0 3-1 3z m-5 23c0 0 2 0 2 1 1 1 1 2 0 3-1 0-2 0-3-1 0-1 0-2 1-3z m-1-14c-2-1-2-2-2-3 2-1 3-1 4 0 1 1 1 2 1 3-1 0-2 0-3 0z m3-5c-1 0-2 1-4 0-1-1-2-3-1-4 1-1 3-1 4 0 1 1 2 3 1 4z m-5 20c1 1 0 2-1 3-1 1-2 0-3-1-1-1 0-3 1-4 1 0 2 0 3 2z m8 9c0 1-2 2-2 2-1 1-2 1-2 2-1 1-1 3-4 2-1 0-2 0-2-1 0-1 0-2 0-4 0 0 0-1-1-2 0-1 0-1 0-2 1 0 1-1 2-2 1 0 3 1 4 1 0 0 0 0 0 0 1 0 2 0 3 0 1 0 2 1 2 2 1 1 0 2 0 2z m5 25c-1 1-2 1-3 0-1 0-1-1-1-3 1 0 2-1 3 0 1 1 1 3 1 3z m0-5c0 1-2 1-3 0-1-1-2-2-1-3 0-1 2-1 3 0 1 0 2 2 1 3z m12 3c0 1-2 2-2 2-1 1-2 1-2 2-1 1-2 3-4 2-1 0-2-1-2-1 0-1 0-3 0-3 0-1 0-3 0-3 0-1 0-1 0-2 0-1 1-2 1-2 0 0 1 0 1 0 0 0 2 0 3 0 1 1 2 1 3 1 1 0 2 0 2 2 1 1 1 1 0 2z m-5-31c-1-1-1-3-1-4 1 0 3-1 4 0 2 1 2 3 1 4 0 1-2 1-4 0z m4 5c0 0-2 1-3 0-1-1-2-2-1-3 1-1 2-1 3 0 1 1 2 2 1 3z m-2 17c1 1 1 2 0 3-1 0-2 0-3-1-1-1-1-3 0-3 1-1 2 0 3 1z m14 6c-1 0-2 0-3 0-1-1-2-2-1-3 0-1 2-1 3 0 1 1 1 2 1 3z m0-5c-1 1-2 1-4 0-1-1-1-3-1-4 1-1 3-1 4 0 1 1 1 3 1 4z m0-8c1-1 3 0 3 1 1 1 1 3 0 3-1 1-2 0-3-1-1-1-1-3 0-3z m12 11c-1 0-2 1-3 1 0 1-1 1-1 2-2 1-2 3-4 3-2 0-2-1-2-2-1-1-1-2-1-3 0-1 0-2 0-3 0 0 0-1 0-1 0-1 1-2 2-2 0 0 0 0 0 0 1 0 2 0 3 0 2 0 3 0 4 1 1 0 2 0 2 2 0 0 0 1 0 2z m-6-10c1-1 2 0 3 1 1 1 0 2 0 2-1 1-3 0-3-1-1-1-1-2 0-2z m10-388c0-5 3-8 7-8l18 0c4 0 8 3 8 8l0 36c0 4-4 8-8 8l-18 0c-4 0-7-4-7-8z m0 86c0-5 3-9 7-9l18 0c4 0 8 4 8 9l0 35c0 5-4 9-8 9l-18 0c-4 0-7-4-7-9z m0 85c0-5 3-9 7-9l18 0c4 0 8 4 8 9l0 36c0 4-4 8-8 8l-18 0c-4 0-7-4-7-8z m-16 103c0-4 3-8 8-8l38 0c5 0 8 4 8 8l0 29c0 4-3 8-8 8l-38 0c-5 0-8-4-8-8z m0 99c0 0 0 1 0 2-1 0-2 1-3 1 0 1-1 1-1 2-1 1-2 3-4 2-1 0-2 0-2-1 0-1 0-2 0-3 0-1 0-2 0-3 0 0 0-1 0-1 0-1 1-2 2-2 1 0 2 0 3 0 1 0 2 0 3 1 1 0 2 0 2 2z m-6-8c1-1 2 0 3 1 1 1 1 2 0 2-1 1-2 0-3-1 0-1 0-2 0-2z m-2 3c-1 1-3 1-3-1-1-1-1-3 0-3 1-1 2 0 3 1 1 1 1 3 0 3z m-43-368c0-5 4-8 8-8l18 0c4 0 7 3 7 8l0 36c0 4-3 8-7 8l-18 0c-4 0-8-4-8-8z m0 86c0-5 4-9 8-9l18 0c4 0 7 4 7 9l0 35c0 5-3 9-7 9l-18 0c-4 0-8-4-8-9z m0 85c0-5 4-9 8-9l18 0c4 0 7 4 7 9l0 36c0 4-3 8-7 8l-18 0c-4 0-8-4-8-8z m-7 86c0-5 5-9 9-7 23 6 40 28 40 55l0 22c0 4-2 7-6 7-2 0-3 0-5 0l-29 0c-5 0-9-4-9-8z m-2 96c1-1 2-1 4-1 1 1 2 3 1 4-1 1-3 1-4 0-1-1-2-2-1-3z m-5-96l0 69c0 4-4 8-8 8l-33 0c-4 0-7-4-7-8l0-21c0-27 17-49 40-55 4-2 8 2 8 7z m-57-257c0-5 4-8 8-8l18 0c4 0 7 3 7 8l0 36c0 4-3 8-7 8l-18 0c-4 0-8-4-8-8z m0 86c0-5 4-9 8-9l18 0c4 0 7 4 7 9l0 35c0 5-3 9-7 9l-18 0c-4 0-8-4-8-9z m0 85c0-5 4-9 8-9l18 0c4 0 7 4 7 9l0 36c0 4-3 8-7 8l-18 0c-4 0-8-4-8-8z m-66-171c0-5 4-8 8-8l17 0c5 0 8 3 8 8l0 36c0 4-3 8-8 8l-17 0c-4 0-8-4-8-8z m0 86c0-5 4-9 8-9l17 0c5 0 8 4 8 9l0 35c0 5-3 9-8 9l-17 0c-4 0-8-4-8-9z m0 85c0-5 4-9 8-9l17 0c5 0 8 4 8 9l0 36c0 4-3 8-8 8l-17 0c-4 0-8-4-8-8z m0 103c0-4 4-8 8-8l38 0c5 0 8 4 8 8l0 29c0 4-3 8-8 8l-38 0c-4 0-8-4-8-8z m-93-180l0 27-15 0 0-65 15 0 0 25 24 0 0-25 14 0 0 65-14 0 0-27z"/>
    </symbol>
  
    <symbol id="icon-fontello-3" viewBox="0 0 512 512">
      <path d="m25 384c13 22 41 33 82 33 18 0 38-2 59-7 20 63 53 102 90 102 38 0 70-39 90-102 21 5 41 7 60 7 40 0 68-11 81-33 16-28 2-76-48-128 50-53 64-100 48-128-13-22-41-33-81-33-19 0-39 2-60 7-20-63-53-102-90-102-37 0-70 39-90 102-21-5-41-7-59-7-41 0-69 11-82 33-16 28-2 75 47 128-49 52-63 100-47 128z m231 112c-30 0-56-35-74-89 24-7 49-15 74-26 25 11 50 19 74 26-18 54-45 89-74 89z m-96-240c0-18 1-37 3-54 14-11 29-20 45-29 16-9 32-17 48-25 16 8 32 16 48 25 16 9 31 18 45 29 2 17 3 36 3 54 0 18-1 37-3 54-14 10-29 20-45 29-16 9-32 17-48 25-16-8-32-16-48-25-16-9-31-19-45-29-2-17-3-36-3-54z m-14 42c-19-14-35-28-50-42 15-14 31-28 50-42-1 14-2 28-2 42 0 14 1 28 2 42z m19-117c3-22 7-42 12-61 20 5 39 12 59 20-12 6-24 12-36 19-12 7-24 15-35 22z m111-41c20-8 40-15 58-20 6 19 10 39 13 61-11-7-23-15-35-22-12-7-24-13-36-19z m90 74c19 14 36 28 50 42-14 14-31 28-50 42 1-14 2-28 2-42 0-14-1-28-2-42z m-19 117c-3 22-7 42-13 61-18-5-38-12-58-20 12-6 24-12 36-19 12-7 24-15 35-22z m-147 22c12 7 24 13 36 19-20 8-39 15-59 20-5-19-9-39-12-61 11 7 23 15 35 22z m273 23c-10 16-34 25-67 25-17 0-36-2-56-6 7-23 12-48 15-76 24-17 45-34 63-51 40 43 59 84 45 108z m-67-265c33 0 57 9 67 25 14 24-5 65-45 108-18-17-39-34-63-51-3-28-8-53-15-76 20-4 39-6 56-6z m-150-95c29 0 56 35 74 89-24 6-49 15-74 26-25-11-50-20-74-26 18-54 44-89 74-89z m-217 120c9-16 33-25 68-25 17 0 35 2 54 6-6 23-10 48-13 76-25 17-46 34-63 51-41-43-60-84-46-108z m46 132c17 17 38 34 63 51 3 28 7 53 13 76-19 4-37 6-54 6-35 0-59-9-68-25-14-24 5-65 46-108z m171 28c22 0 40-18 40-40 0-22-18-40-40-40-22 0-40 18-40 40 0 22 18 40 40 40z m0-64c13 0 24 11 24 24 0 13-11 24-24 24-13 0-24-11-24-24 0-13 11-24 24-24z"/>
    </symbol>
  
    <symbol id="icon-fontello-4" viewBox="0 0 512 512">
      <path d="m432 449l-32 0 0 31-64 0 0-31-176 0 0 31-64 0 0-31-32 0c-17 0-32-15-32-33l0-272c0-17 15-31 32-31l368 0c18 0 32 14 32 31l0 272c0 18-14 33-32 33z m-96-192l-64 0 0-64-48 0 0 64-64 0 0 48 64 0 0 64 48 0 0-64 64 0z m-32-193l-96 0 0 32-32 0 0-15 16 0 0-49 127 0 0 48 17 0 0 16-32 0z"/>
    </symbol>
  
    <symbol id="icon-fontello-5" viewBox="0 0 512 512">
      <path d="m0 512l256 0 0-512-256 0z m160-448l64 0 0 64-64 0z m0 128l64 0 0 64-64 0z m0 128l64 0 0 64-64 0z m-128-256l64 0 0 64-64 0z m0 128l64 0 0 64-64 0z m0 128l64 0 0 64-64 0z m256-160l224 0 0 32-224 0z m0 352l64 0 0-128 96 0 0 128 64 0 0-288-224 0z"/>
    </symbol>
  
    <symbol id="icon-fontello-6" viewBox="0 0 512 512">
      <path d="m512 304l-96-96 0-144-64 0 0 80-96-96-256 256 0 16 64 0 0 160 160 0 0-96 64 0 0 96 160 0 0-160 64 0z"/>
    </symbol>
  
    <symbol id="icon-fontello-7" viewBox="0 0 512 512">
      <path d="m256 0l-256 160 512 0z m144 192l16 32 0 192 64 0 0-192 16-32z m-128 0l16 32 0 192 64 0 0-192 16-32z m-128 0l16 32 0 192 64 0 0-192 16-32z m-128 0l16 32 0 192 64 0 0-192 16-32z m0 256l-16 64 512 0-16-64z m272-352c0 18-14 32-32 32-18 0-32-14-32-32 0-18 15-32 32-32 18 0 32 14 32 32z"/>
    </symbol>
  
    <symbol id="icon-fontello-8" viewBox="0 0 512 512">
      <path d="m73 402l6 0 0 20c0 21 17 39 38 39l9 0c21 0 39-18 39-39l0-20 187 0 0 20c0 21 17 39 38 39l9 0c21 0 38-18 38-39l0-20 4 0c21 0 38-17 38-38l0-112c0-21-17-38-38-38l-2 0-28-99c-1-5-7-9-12-9l-66 0c0-1 0-3 0-4 0-20-17-37-38-37l-78 0c-21 0-38 17-38 37 0 1 0 3 0 4l-66 0c-6 0-11 4-12 9l-28 99 0 0c-21 0-39 17-39 38l0 112c0 21 18 38 39 38z m-15-150c0-8 7-14 15-14l9 0c6 0 11-4 12-9l28-99 75 0c4 0 8-3 10-7 2-4 2-9-1-12-1-2-3-5-3-9 0-7 6-13 14-13l78 0c8 0 14 6 14 13 0 4-2 7-3 9-3 3-3 8-1 12 2 4 6 7 10 7l75 0 28 99c1 5 6 9 12 9l11 0c8 0 14 6 14 14l0 112c0 8-6 14-14 14l-16 0c-6 0-12 6-12 13l0 31c0 8-6 15-14 15l-9 0c-8 0-14-7-14-15l0-31c0-7-6-13-12-13l-211 0c-7 0-12 6-12 13l0 31c0 8-7 15-15 15l-9 0c-7 0-14-7-14-15l0-31c0-7-5-13-12-13l-18 0c-8 0-15-6-15-14z m66 100c23 0 42-19 42-42 0-23-19-41-42-41-23 0-42 18-42 41 0 23 19 42 42 42z m0-60c10 0 18 9 18 18 0 10-8 18-18 18-10 0-18-8-18-18 0-9 8-18 18-18z m222 18c0 23 19 42 42 42 23 0 42-19 42-42 0-23-19-41-42-41-23 0-42 18-42 41z m60 0c0 10-8 18-18 18-10 0-18-8-18-18 0-9 8-18 18-18 10 0 18 9 18 18z m-275-71l250 0c4 0 8-2 10-5 2-3 3-7 2-10l-16-69c-1-6-6-10-12-10l-219 0c-5 0-10 4-11 10l-16 69c-1 3 0 7 2 10 2 3 6 5 10 5z m25-70l200 0 11 46-222 0z"/>
    </symbol>
  
    <symbol id="icon-fontello-9" viewBox="0 0 512 512">
      <path d="m256-1c-141 0-257 116-257 257 0 141 116 257 257 257 141 0 257-116 257-257 0-141-116-257-257-257z m0 497c-132 0-240-108-240-240 0-132 108-240 240-240 132 0 240 108 240 240 0 132-108 240-240 240z m-88-232c18 0 32-14 32-32 0-18-14-32-32-32-18 0-32 15-32 32 0 17 15 32 32 32z m0-48c9 0 16 7 16 16 0 9-7 16-16 16-9 0-16-7-16-16 0-9 7-16 16-16z m176 48c17 0 32-14 32-32 0-18-15-32-32-32-17 0-32 15-32 32 0 17 14 32 32 32z m0-48c9 0 16 7 16 16 0 9-7 16-16 16-9 0-16-7-16-16 0-9 7-16 16-16z m21 137c-27 29-65 46-105 46-41 0-79-17-107-47-3-3-8-4-12-1-3 3-4 9 0 13 30 33 74 53 119 53 45 0 88-19 118-52 3-4 3-9-1-12-3-3-8-3-12 0z"/>
    </symbol>
  
    <symbol id="icon-fontello-10" viewBox="0 0 512 512">
      <path d="m454 22c2-2 2-5 2-7 0-3-2-5-4-6-37-18-81-10-109 19-28 27-37 70-25 106l-184 184c-10-3-21-5-32-5-27 0-54 11-73 30-28 29-36 71-20 108 1 3 3 4 5 5 3 0 6 0 8-2l55-57c4-3 10-4 13-1l24 25c4 4 4 10 0 13l-56 56c-2 2-2 5-2 7 1 3 2 5 4 6 14 6 28 10 42 10 25 0 49-10 67-29 28-27 37-70 25-106l184-184c10 3 21 5 32 5 27 0 54-11 73-30 28-29 36-71 20-108-1-3-3-4-5-5-3 0-6 0-8 2l-55 57c-4 3-10 3-13-1l-24-24c-4-3-4-9 0-12z m-67 80l23 23c10 10 26 10 36 1l47-47c7 27 0 57-21 79-16 16-39 25-62 25-11 0-21-2-31-6-3-2-6-1-9 1l-192 192c-2 3-2 6-1 9 12 31 5 70-19 94-21 21-52 29-80 20l47-48c10-9 11-25 1-34l-24-26c-9-9-26-9-36 1l-47 47c-7-27 0-57 21-79 16-16 39-25 62-25 11 0 21 2 31 6 3 2 6 1 9-1l192-192c2-3 3-6 1-9-12-31-5-70 19-94 21-21 52-29 80-20l-47 48c-11 9-11 25 0 35z m80 388c-3 4-9 4-13 0l-160-160c-4-3-8-3-12 0-3 3-3 8 1 12l160 160c4 4 11 7 18 7 6 0 13-3 18-7l23-24c9-10 9-26 0-36l-160-160c-4-3-9-3-12 0-3 3-3 8 0 11l160 161c4 3 4 9 0 12z m-373-440l-48-47c-4-4-9-4-12 0l-31 31c-4 3-4 8 0 12l47 48c2 1 4 2 6 2 2 0 4-1 5-2l11-11 123 123c1 1 3 2 5 2 2 0 4-1 6-2 3-3 3-8 0-11l-123-123 11-11c3-3 3-8 0-11z m-38 27l-37-37 21-21 37 37z"/>
    </symbol>
  
    <symbol id="icon-fontello-11" viewBox="0 0 512 512">
      <path d="m248 62c14 0 24 11 24 25l0 123 160 101 0 43-160-54 0 83 33 33 0 34-57-19-55 19 0-36 30-29 1-85-161 54 1-43 160-102 0-122c0-14 11-25 24-25z"/>
    </symbol>
  
    <symbol id="icon-fontello-12" viewBox="0 0 512 512">
      <path d="m432 352l-368 0c-17 0-32-15-32-32l0-80c0-18 15-32 32-32l16 0c0 0 24-72 31-96 6-24 14-32 32-32l210 0c18 0 23 5 33 32 9 27 30 96 30 96l16 0c18 0 32 14 32 32l0 80c0 17-14 32-32 32z m-288-32l208 0 0-16-208 0z m208-112c0-18-14-34-32-34-18 0-32 16-32 34 0 0 64 0 64 0z m-208 80l208 0 0-16-208 0z m0-32l208 0 0-16-208 0z m-79 16c0 18 14 32 32 32 17 0 32-14 32-32 0-18-14-32-32-32-18 0-32 14-32 32z m304-160c-3-11-7-16-16-16l-97 0 0 16 8 0c4 0 8 4 8 8 0 4-4 8-8 8l-32 0c-4 0-8-4-8-8 0-5 4-8 8-8l8 0 0-16-97 0c-9 0-12 2-17 16-3 14-30 96-30 96l184 0c0-22 17-42 39-42 22 0 40 20 40 42l41 0c0 0-27-85-31-96z m30 129c-18 0-32 14-32 32 0 17 14 32 32 32 17 0 32-14 32-32 0-18-14-32-32-32z m-287 167c0 13-11 24-24 24-13 0-24-11-24-24l0-40 48 0z m320 0c0 13-11 24-24 24-13 0-24-11-24-24l0-40 48 0z"/>
    </symbol>
  
    <symbol id="icon-fontello-13" viewBox="0 0 512 512">
      <path d="m257 134c0 0-32-68-104-68-79 0-120 66-120 133 0 110 224 247 224 247 0 0 222-135 222-247 0-68-42-133-119-133-76 0-103 68-103 68z"/>
    </symbol>
  
    <symbol id="icon-fontello-14" viewBox="0 0 512 512">
      <path d="m425 129l-168 147 0 191 94 45-219 0 93-45 0-191-170-147 259 0 52-91 14 9-47 82z m-39 14l-62 1-19 33 44 0z m-129 98c10 0 17-8 17-17 0-10-7-17-17-17-10 0-17 8-17 17 0 9 8 17 17 17z m-163-98l38 34 154 0 19-33z"/>
    </symbol>
  
    <symbol id="icon-fontello-15" viewBox="0 0 512 512">
      <path d="m256 0c-106 0-192 86-192 192 0 106 192 320 192 320 0 0 192-214 192-320 0-106-86-192-192-192z m0 320c-71 0-128-57-128-128 0-71 57-128 128-128 71 0 128 57 128 128 0 71-57 128-128 128z m0-192c-35 0-64 29-64 64 0 35 29 64 64 64 35 0 64-29 64-64 0-35-29-64-64-64z"/>
    </symbol>
  
    <symbol id="icon-facebook" viewBox="0 0 512 512">
      <path d="m292 159l74 0l-9 81l-65 0l0 235l-97 0l0-235l-49 0l0-81l49 0l0-49c0-35 8-61 24-79c17-18 44-26 81-26l65 0l0 81l-40 0c-8 0-14 0-18 2c-5 1-8 3-10 6c-2 4-3 7-4 10c0 3-1 8-1 14z"/>
    </symbol>
  
    <symbol id="icon-twitter-alt" viewBox="0 0 512 512">
      <path d="m434 238c26-2 44-13 50-29c-9 5-38 12-54 6c-1-4-2-8-2-11c-13-45-54-81-98-76c3-2 7-3 11-4c4-2 33-7 28-17c-4-8-38 7-45 9c9-3 23-9 25-19c-13 2-26 8-36 17c3-4 6-8 7-13c-35 22-56 67-73 111c-13-13-24-23-34-28c-29-16-64-32-119-52c-1 18 9 42 40 58c-7-1-19 1-29 3c4 21 17 38 52 46c-16 1-24 5-32 13c8 14 25 31 57 27c-35 16-14 44 15 40c-50 50-127 47-171 4c116 158 368 94 405-59c29 1 45-9 55-20c-16 2-39 0-52-6z"/>
    </symbol>
  
    <symbol id="icon-social-twitter" viewBox="0 0 512 512">
      <path d="m453 134c-14 6-30 11-46 12c16-10 29-25 35-44c-15 9-33 16-51 19c-15-15-36-25-59-25c-45 0-81 36-81 81c0 6 1 12 2 18c-67-3-127-35-167-84c-7 12-11 25-11 40c0 28 15 53 36 68c-13-1-25-4-36-11c0 1 0 1 0 2c0 39 28 71 65 79c-7 2-14 3-22 3c-5 0-10-1-15-2c10 32 40 56 76 56c-28 22-63 35-101 35c-6 0-13 0-19-1c36 23 78 36 124 36c149 0 230-123 230-230c0-3 0-7 0-10c16-12 29-26 40-42z"/>
    </symbol>
  
    <symbol id="icon-instagram" viewBox="0 0 512 512">
      <path d="m480 0l-448 0c-18 0-32 14-32 32l0 448c0 18 14 32 32 32l448 0c18 0 32-14 32-32l0-448c0-18-14-32-32-32z m-288 256c0 0 5-64 64-64 59 0 64 64 64 64 0 0 2 64-64 64-66 0-64-64-64-64z m256 192l-384 0 0-224 69 0c-3 10-5 21-5 32 0 71 57 128 128 128 71 0 128-57 128-128 0-11-2-22-5-32l69 0z m0-288l-96 0 0-96 96 0z"/>
    </symbol>
  
    <symbol id="icon-home-1" viewBox="0 0 512 512">
      <path d="m101 255l146-111l147 111l0 221l-83 0l0-135l-128 0l0 135l-82 0z m-101-8l39 51l27-20l0 234l363 0l0-234l27 20l39-51l-90-68l0-113l-64 0l0 64l-94-71z"/>
    </symbol>
  
    <symbol id="icon-arrow-left" viewBox="0 0 512 512">
      <path d="m213 85c6 0 11 2 15 7 5 4 7 9 7 15 0 6-2 11-7 15l-112 113 332 0c6 0 11 2 15 6 4 4 6 9 6 15 0 6-2 11-6 15-4 4-9 6-15 6l-332 0 112 113c5 4 7 9 7 15 0 6-2 11-7 15-4 5-9 7-15 7-6 0-11-2-15-6l-149-150c-4-4-6-9-6-15 0-6 2-11 6-15l149-149c4-5 9-7 15-7z"/>
    </symbol>
  
    <symbol id="icon-arrow-right" viewBox="0 0 512 512">
      <path d="m299 85c6 0 11 2 15 6l149 150c4 4 6 9 6 15 0 6-2 11-6 15l-149 149c-4 5-9 7-15 7-6 0-12-2-16-6-4-4-6-10-6-16 0-6 2-11 7-15l113-113-333 0c-6 0-11-2-15-6-4-4-6-9-6-15 0-6 2-11 6-15 4-4 9-6 15-6l333 0-113-113c-5-4-7-9-7-15 0-6 2-12 6-16 4-4 10-6 16-6z"/>
    </symbol>
  
    <symbol id="icon-arrow-down" viewBox="0 0 512 512">
      <path d="m256 43c6 0 11 2 15 6 4 4 6 9 6 15l0 333 113-113c4-5 9-7 15-7 6 0 12 2 16 6 4 4 6 10 6 16 0 6-2 11-6 15l-150 149c-4 4-9 6-15 6-6 0-11-2-15-6l-149-149c-5-4-7-9-7-15 0-6 2-12 6-16 4-4 10-6 16-6 6 0 11 2 15 7l113 113 0-333c0-6 2-11 6-15 4-4 9-6 15-6z"/>
    </symbol>
  
    <symbol id="icon-arrow-up" viewBox="0 0 512 512">
      <path d="m256 43c6 0 11 2 15 6l149 149c5 4 7 9 7 15 0 6-2 12-6 16-4 4-10 6-16 6-6 0-11-2-15-7l-113-113 0 333c0 6-2 11-6 15-4 4-9 6-15 6-6 0-11-2-15-6-4-4-6-9-6-15l0-333-113 113c-4 5-9 7-15 7-6 0-12-2-16-6-4-4-6-10-6-16 0-6 2-11 6-15l150-149c4-4 9-6 15-6z"/>
    </symbol>
  
    <symbol id="icon-check" viewBox="0 0 512 512">
      <path d="m448 107c6 0 11 2 15 6 4 4 6 9 6 15 0 6-2 11-6 15l-256 256c-4 4-9 6-15 6-6 0-11-2-15-6l-128-128c-4-4-6-9-6-15 0-6 2-11 6-15 4-4 9-6 15-6 6 0 11 2 15 6l113 113 241-241c4-4 9-6 15-6z"/>
    </symbol>
  
    <symbol id="icon-cross" viewBox="0 0 512 512">
      <path d="m405 85c6 0 12 2 16 6 4 4 6 10 6 16 0 6-2 11-7 15l-134 134 134 134c5 4 7 9 7 15 0 6-2 12-6 16-4 4-10 6-16 6-6 0-11-2-15-7l-134-134-134 134c-4 5-9 7-15 7-6 0-12-2-16-6-4-4-6-10-6-16 0-6 2-11 7-15l134-134-134-134c-5-4-7-9-7-15 0-6 2-12 6-16 4-4 10-6 16-6 6 0 11 2 15 6l134 135 134-135c4-4 9-6 15-6z"/>
    </symbol>
  
    <symbol id="icon-bolt" viewBox="0 0 512 512">
      <path d="m174 486c-5-3 81-183 78-191-3-8-94-37-98-51-5-13 179-222 184-218 5 4-80 185-78 191 2 6 96 36 98 50 3 15-179 223-184 219z"/>
    </symbol>
  
    <symbol id="icon-light-bulb" viewBox="0 0 512 512">
      <path d="m184 491c20 13 44 22 72 21 28 1 52-8 72-21l0-53-144 0z m141-84c0-112 119-147 110-258-6-70-53-149-179-149-126 0-173 79-179 149-9 111 110 147 110 258z m-193-254c5-67 50-100 124-100 74 0 119 33 124 100 3 36-18 61-46 100-21 30-45 64-57 109l-42 0c-12-45-36-79-57-109-28-40-49-64-46-100z"/>
    </symbol>
  
    <symbol id="icon-file-add" viewBox="0 0 512 512">
      <path d="m107 0l213 0 149 149 0 299c0 18-6 33-18 45-13 13-28 19-46 19l-298 0c-18 0-33-6-46-19-12-12-18-27-18-45l0-384c0-18 6-33 18-45 13-13 28-19 46-19z m149 235c6 0 11 2 15 6 4 4 6 9 6 15l0 43 43 0c6 0 11 2 15 6 4 4 6 9 6 15 0 6-2 11-6 15-4 4-9 6-15 6l-43 0 0 43c0 6-2 11-6 15-4 4-9 6-15 6-6 0-11-2-15-6-4-4-6-9-6-15l0-43-43 0c-6 0-11-2-15-6-4-4-6-9-6-15 0-6 2-11 6-15 4-4 9-6 15-6l43 0 0-43c0-6 2-11 6-15 4-4 9-6 15-6z m21-43l0-149-170 0c-6 0-11 2-16 6-4 4-6 9-6 15l0 384c0 6 2 11 6 15 5 4 10 6 16 6l298 0c6 0 11-2 15-6 5-4 7-9 7-15l0-256z m132-43l-89-89 0 89z"/>
    </symbol>
  
    <symbol id="icon-file-subtract" viewBox="0 0 512 512">
      <path d="m107 0l213 0 149 149 0 299c0 18-6 33-18 45-13 13-28 19-46 19l-298 0c-18 0-33-6-46-19-12-12-18-27-18-45l0-384c0-18 6-33 18-45 13-13 28-19 46-19z m85 299l128 0c6 0 11 2 15 6 4 4 6 9 6 15 0 6-2 11-6 15-4 4-9 6-15 6l-128 0c-6 0-11-2-15-6-4-4-6-9-6-15 0-6 2-11 6-15 4-4 9-6 15-6z m85-107l0-149-170 0c-6 0-11 2-16 6-4 4-6 9-6 15l0 384c0 6 2 11 6 15 5 4 10 6 16 6l298 0c6 0 11-2 15-6 5-4 7-9 7-15l0-256z m132-43l-89-89 0 89z"/>
    </symbol>
  
    <symbol id="icon-minus" viewBox="0 0 512 512">
      <path d="m64 235l384 0c6 0 11 2 15 6 4 4 6 9 6 15 0 6-2 11-6 15-4 4-9 6-15 6l-384 0c-6 0-11-2-15-6-4-4-6-9-6-15 0-6 2-11 6-15 4-4 9-6 15-6z"/>
    </symbol>
  
    <symbol id="icon-monitor" viewBox="0 0 512 512">
      <path d="m85 43l342 0c17 0 32 6 45 18 12 13 19 28 19 46l0 213c0 18-7 33-19 45-13 13-28 19-45 19l-150 0 0 43 64 0c6 0 11 2 15 6 5 4 7 9 7 15 0 6-2 11-7 15-4 4-9 6-15 6l-170 0c-6 0-11-2-15-6-5-4-7-9-7-15 0-6 2-11 7-15 4-4 9-6 15-6l64 0 0-43-150 0c-17 0-32-6-45-19-12-12-19-27-19-45l0-213c0-18 7-33 19-46 13-12 28-18 45-18z m342 42l-342 0c-6 0-11 2-15 7-4 4-6 9-6 15l0 213c0 6 2 11 6 15 4 4 9 6 15 6l342 0c6 0 11-2 15-6 4-4 6-9 6-15l0-213c0-6-2-11-6-15-4-5-9-7-15-7z"/>
    </symbol>
  
    <symbol id="icon-social-android" viewBox="0 0 512 512">
      <path d="m310 93l18-32c1-1 0-3-2-4c-1-1-4-1-4 1l-18 32c-14-7-31-10-48-10c-17 0-34 3-48 10l-18-32c-1-2-3-2-4-1c-2 1-3 3-2 4l18 32c-34 17-57 50-57 89l222 0c0-39-23-72-57-89z m-105 48c-5 0-9-4-9-9c0-5 4-9 9-9c6 0 10 4 10 9c0 5-4 9-10 9z m102 0c-6 0-10-4-10-9c0-5 4-9 10-9c5 0 9 4 9 9c0 5-4 9-9 9z m118 69c0-14-11-25-25-25c-13 0-24 12-24 25l0 103c0 14 11 25 24 25c14 0 25-11 25-25z m-59-20l-220 0l0 160c0 4 1 8 3 12c4 8 13 14 23 14l18 0l0 55c0 2 0 3 1 5c2 11 12 20 24 20c1 0 3 0 5-1c11-2 19-12 19-24l0-55l34 0l0 55c0 12 8 22 19 24c2 0 4 1 5 1c14 0 25-11 25-25l0-55l18 0c5 0 9-1 13-3c8-5 13-13 13-23z m-254-5c-14 0-25 12-25 25l0 103c0 9 4 17 11 21c4 3 9 4 14 4c12 0 22-8 24-20c0-1 0-3 0-5l0-103c0-13-11-25-24-25z"/>
    </symbol>
  
    <symbol id="icon-apple" viewBox="0 0 512 512">
      <path d="m280 61c16-20 44-34 67-35c3 27-8 54-24 73c-16 20-42 35-68 33c-3-27 10-54 25-71z m131 368c-19 28-39 56-70 57c-31 0-41-19-76-19c-35 0-46 18-75 19c-30 2-53-30-73-58c-39-57-69-162-29-232c20-35 56-57 95-58c30 0 58 20 76 20c18 0 52-25 88-21c15 1 57 6 84 46c-2 1-50 29-50 87c1 70 61 93 62 94c-1 1-10 33-32 65z"/>
    </symbol>
  
    <symbol id="icon-law" viewBox="0 0 512 512">
      <path d="m257 96c17 0 31-14 31-31 1-18-14-33-33-33-17 1-30 14-31 31 0 19 15 34 33 33z m232 192l-9 0-63-123c9-1 18-4 26-8 12-5 14-21 5-31l0 0c-6-6-14-8-22-4-7 3-17 6-26 6-28 0-41-32-144-32-103 0-115 32-143 32-10 0-20-3-27-6-7-3-16-2-21 4l-1 0c-9 10-6 25 6 31 8 4 17 7 26 8l-64 123-9 0c-4 0-7 4-6 8 5 32 46 56 95 56 50 0 90-24 96-56 0-4-3-8-7-8l-9 0-63-122c41-4 63-25 95-25l0 243c-17 0-32 15-32 32l-35 0c-14 0-29 15-29 32l256 0c0-17-14-32-35-32l-29 0c0-17-14-32-32-32l0-243c32 0 54 21 96 25l-64 122-9 0c-4 0-7 4-6 8 5 32 46 56 95 56 50 0 90-24 96-56 0-4-3-8-7-8z m-329 0l-96 0 48-90z m192 0l48-90 48 90z"/>
    </symbol>
  
    <symbol id="icon-bike" viewBox="0 0 512 512">
      <path d="m400 224c-11 0-22 2-32 5l-19-35l45-98l5-9c2-5 2-11-1-16c-3-4-8-7-14-7l-80 0c-9 0-16 7-16 16c0 9 7 16 16 16l55 0l-30 64l-169 0c-7 0-13 4-15 11l-18 55c-5-1-10-2-15-2c-62 0-112 50-112 112c0 62 50 112 112 112c62 0 112-50 112-112c0-46-27-84-66-102l7-21c4-12 16-21 29-21l116 0l2 4l19 35l7 12c-30 20-50 54-50 93c0 62 50 112 112 112c62 0 112-50 112-112c0-62-50-112-112-112m-208 112c0 44-36 80-80 80c-44 0-80-36-80-80c0-44 36-80 80-80c2 0 3 0 5 1l-16 48c-3 8 2 17 10 20c4 1 9 1 12-1c4-2 7-5 8-9l17-50c26 13 44 40 44 71m208 80c-44 0-80-36-80-80c0-27 13-50 34-65l40 75c4 7 14 10 21 6l0 0c4-2 7-5 9-9c1-4 0-9-2-13l-39-72c6-1 11-2 17-2c44 0 80 36 80 80c0 44-36 80-80 80m-288-288l48 0c24 0 38-8 52-21c2-2 3-4 2-7c-1-2-3-4-6-4l-96 0c-9 0-16 7-16 16c0 9 7 16 16 16"/>
    </symbol>
  
    <symbol id="icon-shoes-snickers-streamline" viewBox="0 0 512 512">
      <path d="m503 469l-490 0c-6 0-11-4-11-10l0-150c0-17 14-32 32-32l21 0c6 0 11 5 11 11c0 7 28 21 64 21c44 0 64-12 64-21c0-3 2-7 4-9c3-2 7-2 10-1l285 102c12 4 21 16 21 30l0 49c0 6-5 10-11 10z m-480-21l470 0l0-38c0-5-3-9-8-10l-273-98c-10 18-40 29-82 29c-35 0-73-12-83-32l-13 0c-6 0-11 4-11 10z m-10-43l490 0l0 22l-490 0z m224-64c-3 0-6-1-8-3c-4-4-4-11 0-15l23-23c4-4 11-4 15 0c4 4 4 11 0 15l-23 23c-2 2-5 3-7 3z m42 11c-3 0-5-1-7-3c-5-4-5-11 0-15l19-20c4-4 11-4 15 0c5 4 5 11 0 15l-19 20c-2 2-5 3-8 3z m-10 64l-22 0l0-11c0-23 19-42 43-42l64 0c5 0 11-8 11-14l21 0c0 17-13 35-32 35l-64 0c-12 0-21 10-21 21z m-192 11c-6 0-11-5-11-11c0-29-24-53-53-53c-6 0-11-5-11-11c0-6 5-11 11-11c41 0 74 34 74 75c0 6-5 11-10 11z m234-192c-1 0-2-1-3-1l-285-102c-13-4-21-16-21-30l0-49c0-6 5-10 11-10l490 0c6 0 11 4 11 10l0 150c0 17-14 32-32 32l-21 0c-6 0-11-5-11-11c0-7-28-21-64-21c-44 0-64 12-64 21c0 3-2 7-5 9c-1 1-4 2-6 2z m158-22l13 0c6 0 11-4 11-10l0-139l-470 0l0 38c0 5 3 9 7 10l274 98c10-18 40-29 82-29c35 0 73 12 83 32z m-456-128l490 0l0 22l-490 0z m243 130c-2 0-5-1-7-3c-4-4-4-11 0-15l23-23c4-4 11-4 15 0c4 4 4 11 0 15l-23 23c-2 2-5 3-8 3z m-39-14c-3 0-6-1-8-3c-4-4-4-11 0-15l20-20c4-4 11-4 15 0c4 4 4 11 0 15l-20 20c-2 2-4 3-7 3z m-66-38l-21 0c0-17 13-35 32-35l64 0c12 0 21-10 21-21l0-11l22 0l0 11c0 23-20 42-43 42l-64 0c-5 0-11 8-11 14z m352 8c-41 0-74-34-74-75c0-6 4-11 10-11c6 0 11 5 11 11c0 29 24 53 53 53c6 0 11 5 11 11c0 6-5 11-11 11z"/>
    </symbol>
  
    <symbol id="icon-group-full" viewBox="0 0 512 512">
      <path d="m128 320c0-32 0-160 0-160c0 0 0-7 4-16c-33 0-68 0-68 0c0 0-32 0-32 32l0 112c0 32 32 32 32 32l0 160l96 0l0-128c0 0-32 0-32-32z m0-192c8 0 16-2 23-6c1-1 2-1 3-2c13-8 22-23 22-40c0-27-21-48-48-48c-27 0-48 21-48 48c0 27 21 48 48 48z m320 16l-68 0c4 9 4 16 4 16c0 0 0 128 0 160c0 32-32 32-32 32l0 128l96 0l0-160c0 0 32 0 32-32c0-32 0-112 0-112c0 0 0-32-32-32z m-90-24c1 1 2 1 3 2c7 4 15 6 23 6c27 0 48-21 48-48c0-27-21-48-48-48c-27 0-48 21-48 48c0 17 9 32 22 40z m-102 8c27 0 48-21 48-48c0-27-21-48-48-48c-27 0-48 21-48 48c0 27 21 48 48 48z m96 48c0 0 0-32-32-32c-8 0-128 0-128 0c0 0-32 0-32 32l0 112c0 32 32 32 32 32l0 160l128 0l0-160c0 0 32 0 32-32c0-32 0-112 0-112z"/>
    </symbol>
  
    <symbol id="icon-pin-alt" viewBox="0 0 512 512">
      <path d="m256 0c-106 0-192 86-192 192 0 106 192 320 192 320 0 0 192-214 192-320 0-106-86-192-192-192z m0 320c-71 0-128-57-128-128 0-71 57-128 128-128 71 0 128 57 128 128 0 71-57 128-128 128z m0-192c-35 0-64 29-64 64 0 35 29 64 64 64 35 0 64-29 64-64 0-35-29-64-64-64z"/>
    </symbol>
  
    <symbol id="icon-pin" viewBox="0 0 512 512">
      <path d="m256 0c-106 0-192 86-192 192 0 106 192 320 192 320 0 0 192-214 192-320 0-106-86-192-192-192z m0 320c-71 0-128-57-128-128 0-71 57-128 128-128 71 0 128 57 128 128 0 71-57 128-128 128z"/>
    </symbol>
  
    <symbol id="icon-building" viewBox="0 0 512 512">
      <path d="m165 375l0 18c0 3-1 5-3 7c-2 1-4 2-7 2l-18 0c-2 0-4-1-6-2c-2-2-3-4-3-7l0-18c0-3 1-5 3-7c2-1 4-2 6-2l18 0c3 0 5 1 7 2c2 2 3 4 3 7z m0-73l0 18c0 2-1 5-3 6c-2 2-4 3-7 3l-18 0c-2 0-4-1-6-3c-2-1-3-4-3-6l0-18c0-3 1-5 3-7c2-2 4-2 6-2l18 0c3 0 5 0 7 2c2 2 3 4 3 7z m73 0l0 18c0 2-1 5-3 6c-2 2-4 3-6 3l-19 0c-2 0-4-1-6-3c-2-1-3-4-3-6l0-18c0-3 1-5 3-7c2-2 4-2 6-2l19 0c2 0 4 0 6 2c2 2 3 4 3 7z m-73-73l0 18c0 2-1 4-3 6c-2 2-4 3-7 3l-18 0c-2 0-4-1-6-3c-2-2-3-4-3-6l0-18c0-3 1-5 3-7c2-2 4-3 6-3l18 0c3 0 5 1 7 3c2 2 3 4 3 7z m219 146l0 18c0 3-1 5-3 7c-2 1-4 2-6 2l-18 0c-3 0-5-1-7-2c-2-2-3-4-3-7l0-18c0-3 1-5 3-7c2-1 4-2 7-2l18 0c2 0 4 1 6 2c2 2 3 4 3 7z m-73-73l0 18c0 2-1 5-3 6c-2 2-4 3-6 3l-19 0c-2 0-4-1-6-3c-2-1-3-4-3-6l0-18c0-3 1-5 3-7c2-2 4-2 6-2l19 0c2 0 4 0 6 2c2 2 3 4 3 7z m-73-73l0 18c0 2-1 4-3 6c-2 2-4 3-6 3l-19 0c-2 0-4-1-6-3c-2-2-3-4-3-6l0-18c0-3 1-5 3-7c2-2 4-3 6-3l19 0c2 0 4 1 6 3c2 2 3 4 3 7z m-73-74l0 19c0 2-1 4-3 6c-2 2-4 3-7 3l-18 0c-2 0-4-1-6-3c-2-2-3-4-3-6l0-19c0-2 1-4 3-6c2-2 4-3 6-3l18 0c3 0 5 1 7 3c2 2 3 4 3 6z m219 147l0 18c0 2-1 5-3 6c-2 2-4 3-6 3l-18 0c-3 0-5-1-7-3c-2-1-3-4-3-6l0-18c0-3 1-5 3-7c2-2 4-2 7-2l18 0c2 0 4 0 6 2c2 2 3 4 3 7z m-73-73l0 18c0 2-1 4-3 6c-2 2-4 3-6 3l-19 0c-2 0-4-1-6-3c-2-2-3-4-3-6l0-18c0-3 1-5 3-7c2-2 4-3 6-3l19 0c2 0 4 1 6 3c2 2 3 4 3 7z m-73-74l0 19c0 2-1 4-3 6c-2 2-4 3-6 3l-19 0c-2 0-4-1-6-3c-2-2-3-4-3-6l0-19c0-2 1-4 3-6c2-2 4-3 6-3l19 0c2 0 4 1 6 3c2 2 3 4 3 6z m-73-73l0 19c0 2-1 4-3 6c-2 2-4 3-7 3l-18 0c-2 0-4-1-6-3c-2-2-3-4-3-6l0-19c0-2 1-4 3-6c2-2 4-3 6-3l18 0c3 0 5 1 7 3c2 2 3 4 3 6z m219 147l0 18c0 2-1 4-3 6c-2 2-4 3-6 3l-18 0c-3 0-5-1-7-3c-2-2-3-4-3-6l0-18c0-3 1-5 3-7c2-2 4-3 7-3l18 0c2 0 4 1 6 3c2 2 3 4 3 7z m-73-74l0 19c0 2-1 4-3 6c-2 2-4 3-6 3l-19 0c-2 0-4-1-6-3c-2-2-3-4-3-6l0-19c0-2 1-4 3-6c2-2 4-3 6-3l19 0c2 0 4 1 6 3c2 2 3 4 3 6z m-73-73l0 19c0 2-1 4-3 6c-2 2-4 3-6 3l-19 0c-2 0-4-1-6-3c-2-2-3-4-3-6l0-19c0-2 1-4 3-6c2-2 4-3 6-3l19 0c2 0 4 1 6 3c2 2 3 4 3 6z m146 73l0 19c0 2-1 4-3 6c-2 2-4 3-6 3l-18 0c-3 0-5-1-7-3c-2-2-3-4-3-6l0-19c0-2 1-4 3-6c2-2 4-3 7-3l18 0c2 0 4 1 6 3c2 2 3 4 3 6z m-73-73l0 19c0 2-1 4-3 6c-2 2-4 3-6 3l-19 0c-2 0-4-1-6-3c-2-2-3-4-3-6l0-19c0-2 1-4 3-6c2-2 4-3 6-3l19 0c2 0 4 1 6 3c2 2 3 4 3 6z m73 0l0 19c0 2-1 4-3 6c-2 2-4 3-6 3l-18 0c-3 0-5-1-7-3c-2-2-3-4-3-6l0-19c0-2 1-4 3-6c2-2 4-3 7-3l18 0c2 0 4 1 6 3c2 2 3 4 3 6z m-73 393l110 0l0-438l-330 0l0 438l110 0l0-64c0-2 1-4 3-6c2-2 4-3 6-3l92 0c2 0 4 1 6 3c2 2 3 4 3 6z m146-457l0 476c0 5-2 9-5 13c-4 3-8 5-13 5l-366 0c-5 0-9-2-13-5c-3-4-5-8-5-13l0-476c0-5 2-9 5-13c4-3 8-5 13-5l366 0c5 0 9 2 13 5c3 4 5 8 5 13z"/>
    </symbol>
  
</svg>
